
<svg width="24" height="20" class="icon icon-cart-empty" viewBox="0 0 26 21" fill="none" xmlns="http://www.w3.org/2000/svg">
<path d="M9.53174 13.9612C11.0534 13.9613 12.2866 15.1953 12.2866 16.717C12.2865 18.2386 11.0533 19.4718 9.53174 19.4719C8.00999 19.4719 6.77605 18.2387 6.77588 16.717C6.77588 15.1952 8.00989 13.9612 9.53174 13.9612Z" stroke="#FF1F2C" stroke-width="1.5"/>
<path d="M21.0737 13.9612C22.5954 13.9613 23.8286 15.1953 23.8286 16.717C23.8284 18.2386 22.5953 19.4718 21.0737 19.4719C19.552 19.4719 18.318 18.2387 18.3179 16.717C18.3179 15.1952 19.5519 13.9612 21.0737 13.9612Z" stroke="#FF1F2C" stroke-width="1.5"/>
<path d="M24.4458 1.71045L22.7192 11.1694H7.06689L5.34033 1.71045H24.4458Z" stroke="#FF1F2C" stroke-width="1.5"/>
<path d="M9.1626 1.72388H1.72412" stroke="#FF1F2C" stroke-width="1.5" stroke-linecap="square"/>
</svg>
