
<svg class="icon icon-instagram" width="26" height="27" viewBox="0 0 26 27" fill="none" xmlns="http://www.w3.org/2000/svg">
<path d="M12.9726 26.0507C19.9614 26.0507 25.6269 20.3852 25.6269 13.3964C25.6269 6.40769 19.9614 0.742188 12.9726 0.742188C5.98386 0.742188 0.318359 6.40769 0.318359 13.3964C0.318359 20.3852 5.98386 26.0507 12.9726 26.0507Z" fill="#201C1C"/>
<path d="M12.9722 5.24121C10.7578 5.24121 10.4801 5.25176 9.61184 5.29042C8.74362 5.3326 8.15309 5.46969 7.63286 5.67005C7.09857 5.87744 6.64161 6.15864 6.19168 6.61209C5.73823 7.06553 5.46054 7.51898 5.24964 8.05678C5.04928 8.5735 4.91219 9.16754 4.87001 10.0323C4.83135 10.904 4.8208 11.1817 4.8208 13.3927C4.8208 15.6036 4.83135 15.8848 4.87001 16.7531C4.91219 17.6213 5.04928 18.2153 5.24964 18.7321C5.45703 19.2699 5.73823 19.7233 6.19168 20.1767C6.64161 20.6267 7.09857 20.9079 7.63286 21.1153C8.15309 21.3191 8.74362 21.4527 9.61184 21.4949C10.4801 21.5371 10.7613 21.5441 12.9722 21.5441C15.1832 21.5441 15.4644 21.5371 16.3327 21.4949C17.2009 21.4527 17.7914 21.3191 18.3116 21.1153C18.8459 20.9079 19.3029 20.6267 19.7563 20.1767C20.2063 19.7233 20.4875 19.2699 20.6949 18.7321C20.8952 18.2153 21.0323 17.6213 21.0745 16.7531C21.1132 15.8848 21.1237 15.6072 21.1237 13.3927C21.1237 11.1782 21.1132 10.9005 21.0745 10.0323C21.0323 9.16403 20.8952 8.5735 20.6949 8.05678C20.4875 7.51898 20.2063 7.06553 19.7563 6.61209C19.3029 6.15864 18.8459 5.88095 18.3116 5.67005C17.7914 5.46969 17.2009 5.3326 16.3327 5.29042C15.4644 5.25176 15.1832 5.24121 12.9722 5.24121ZM12.9722 6.71403C15.1481 6.71403 15.4082 6.72106 16.2659 6.75972C17.0603 6.79487 17.4926 6.92844 17.7809 7.04093C18.1605 7.18856 18.4312 7.36431 18.7194 7.64903C19.0076 7.93375 19.1834 8.20793 19.3275 8.58756C19.44 8.87579 19.5736 9.30815 19.6087 10.1026C19.6474 10.9602 19.6544 11.2203 19.6544 13.3962C19.6544 15.572 19.6474 15.8321 19.6087 16.6933C19.5736 17.4877 19.44 17.9201 19.3275 18.2048C19.1799 18.5844 19.0041 18.8551 18.7194 19.1433C18.4347 19.428 18.164 19.6073 17.7809 19.7514C17.4926 19.8639 17.0603 19.9975 16.2659 20.0326C15.4082 20.0748 15.1481 20.0818 12.9722 20.0818C10.7964 20.0818 10.5363 20.0748 9.67863 20.0326C8.88422 19.9975 8.45187 19.8639 8.16363 19.7514C7.78401 19.6038 7.51334 19.428 7.22511 19.1433C6.94039 18.8586 6.76112 18.5879 6.617 18.2048C6.50452 17.9166 6.37095 17.4877 6.3358 16.6933C6.29713 15.8321 6.2901 15.5755 6.2901 13.3962C6.2901 11.2168 6.29713 10.9602 6.3358 10.1026C6.37095 9.30815 6.50452 8.87579 6.617 8.58756C6.76463 8.20793 6.94039 7.93727 7.22511 7.64903C7.50983 7.36431 7.78049 7.18856 8.16363 7.04093C8.45187 6.92844 8.88422 6.79487 9.67863 6.75972C10.5363 6.72106 10.7964 6.71403 12.9722 6.71403Z" fill="#FF1F2C"/>
<path d="M12.9731 16.1136C11.4721 16.1136 10.2559 14.8973 10.2559 13.3964C10.2559 11.8955 11.4757 10.6793 12.9731 10.6793C14.4705 10.6793 15.6902 11.8955 15.6902 13.3964C15.6902 14.8973 14.4705 16.1136 12.9731 16.1136ZM12.9731 9.20996C10.6602 9.20996 8.78662 11.0835 8.78662 13.3964C8.78662 15.7093 10.6602 17.5829 12.9731 17.5829C15.286 17.5829 17.1595 15.7093 17.1595 13.3964C17.1595 11.0835 15.286 9.20996 12.9731 9.20996Z" fill="#FF1F2C"/>
<path d="M18.3015 9.04457C18.3015 9.58589 17.8622 10.0218 17.3244 10.0218C16.7866 10.0218 16.3472 9.58589 16.3472 9.04457C16.3472 8.50325 16.783 8.06738 17.3244 8.06738C17.8657 8.06738 18.3015 8.50325 18.3015 9.04457Z" fill="#FF1F2C"/>
</svg>
